<svg width="1920" height="139" viewBox="0 0 1920 139" fill="none" xmlns="http://www.w3.org/2000/svg">
<path d="M80 0H129.792L269 139H218.196L80 0Z" fill="#1F1F1F"/>
<path d="M-14 0H35.7923L175 139H124.196L-14 0Z" fill="#1F1F1F"/>
<path d="M-108 0H-58.2077L81 139H30.1963L-108 0Z" fill="#1F1F1F"/>
<path d="M-202 0H-152.208L-13 139H-63.8037L-202 0Z" fill="#1F1F1F"/>
<path d="M174 0H223.792L363 139H312.196L174 0Z" fill="#1F1F1F"/>
<path d="M268 0H317.792L457 139H406.196L268 0Z" fill="#1F1F1F"/>
<path d="M362 0H411.792L551 139H500.196L362 0Z" fill="#1F1F1F"/>
<path d="M456 0H505.792L645 139H594.196L456 0Z" fill="#1F1F1F"/>
<path d="M550 0H599.792L739 139H688.196L550 0Z" fill="#1F1F1F"/>
<path d="M644 0H693.792L833 139H782.196L644 0Z" fill="#1F1F1F"/>
<path d="M738 0H787.792L927 139H876.196L738 0Z" fill="#1F1F1F"/>
<path d="M832 0H881.792L1021 139H970.196L832 0Z" fill="#1F1F1F"/>
<path d="M926 0H975.792L1115 139H1064.2L926 0Z" fill="#1F1F1F"/>
<path d="M1020 0H1069.79L1209 139H1158.2L1020 0Z" fill="#1F1F1F"/>
<path d="M1114 0H1163.79L1303 139H1252.2L1114 0Z" fill="#1F1F1F"/>
<path d="M1208 0H1257.79L1397 139H1346.2L1208 0Z" fill="#1F1F1F"/>
<path d="M1302 0H1351.79L1491 139H1440.2L1302 0Z" fill="#1F1F1F"/>
<path d="M1396 0H1445.79L1585 139H1534.2L1396 0Z" fill="#1F1F1F"/>
<path d="M1490 0H1539.79L1679 139H1628.2L1490 0Z" fill="#1F1F1F"/>
<path d="M1584 0H1633.79L1773 139H1722.2L1584 0Z" fill="#1F1F1F"/>
<path d="M1678 0H1727.79L1867 139H1816.2L1678 0Z" fill="#1F1F1F"/>
<path d="M1772 0H1821.79L1961 139H1910.2L1772 0Z" fill="#1F1F1F"/>
<path d="M1866 0H1915.79L2055 139H2004.2L1866 0Z" fill="#1F1F1F"/>
</svg>
