<svg width="1872" height="1971" viewBox="0 0 1872 1971" fill="none" xmlns="http://www.w3.org/2000/svg">
<g opacity="0.15">
<path d="M1122.6 519.383L481.68 522.564L367.48 615.153" stroke="#79FFF7" stroke-width="3" stroke-miterlimit="10"/>
<path d="M770.327 521.134C737.342 521.298 677.182 527.346 654.34 545.866L447.354 713.682" stroke="#79FFF7" stroke-width="3" stroke-miterlimit="10"/>
<path d="M547.419 621.159L569.946 648.944" stroke="#79FFF7" stroke-width="3" stroke-miterlimit="10"/>
<path d="M544.408 646.626L574.385 622.321" stroke="#79FFF7" stroke-width="3" stroke-miterlimit="10"/>
<path d="M431.862 431.937L551.684 579.725L471.565 580.127L353.601 434.63L431.862 431.937Z" fill="#79FFF7" stroke="#79FFF7" stroke-width="3" stroke-miterlimit="10"/>
<path d="M632.977 579.327L471.564 580.128" stroke="#79FFF7" stroke-width="3" stroke-miterlimit="10"/>
<path d="M1263.89 1160.53L1020.95 1161.93L972.65 1201.08L946.028 1168.25L1042.62 1089.93" stroke="#79FFF7" stroke-width="3" stroke-miterlimit="10"/>
<path d="M1102.59 1161.46L1004.8 1240.74L1036.74 1280.14L1102.77 1226.61L1313.12 1221.25" stroke="#79FFF7" stroke-width="3" stroke-miterlimit="10"/>
<path d="M1184.97 1224.51L1095.45 1297.1L973.845 1298.85L806.256 1092.15L776.166 1092.12L243.933 435.659L353.6 434.63L164.167 434.416L697.334 1092.03L886.764 1092.24L916.487 1128.9L963.593 1090.7L1205.37 1088.36" stroke="#79FFF7" stroke-width="3" stroke-miterlimit="10"/>
<path d="M1004.8 1240.74L1036.74 1280.14L1102.77 1226.61" stroke="#79FFF7" stroke-width="3" stroke-miterlimit="10"/>
<path d="M972.649 1201.08L946.027 1168.25L1042.62 1089.93" stroke="#79FFF7" stroke-width="3" stroke-miterlimit="10"/>
<path d="M1020.95 1161.93L972.651 1201.09" stroke="#79FFF7" stroke-width="3" stroke-miterlimit="10"/>
<path d="M886.765 1092.24L916.488 1128.9L963.594 1090.71" stroke="#79FFF7" stroke-width="3" stroke-miterlimit="10"/>
<path d="M1184.97 1224.51L1095.45 1297.1" stroke="#79FFF7" stroke-width="3" stroke-miterlimit="10"/>
<path d="M1095.45 1297.1L973.845 1298.85" stroke="#79FFF7" stroke-width="3" stroke-miterlimit="10"/>
<path d="M973.846 1298.85L806.257 1092.15" stroke="#79FFF7" stroke-width="3" stroke-miterlimit="10"/>
<path d="M1102.77 1226.61L1184.97 1224.51L1313.12 1221.25" stroke="#79FFF7" stroke-width="3" stroke-miterlimit="10"/>
<path d="M1102.77 1226.61L1184.97 1224.51" stroke="#79FFF7" stroke-width="3" stroke-miterlimit="10"/>
<path d="M963.594 1090.71L1042.62 1089.94L1205.37 1088.36" stroke="#79FFF7" stroke-width="3" stroke-miterlimit="10"/>
<path d="M963.594 1090.71L1042.62 1089.94" stroke="#79FFF7" stroke-width="3" stroke-miterlimit="10"/>
<path d="M1263.89 1160.53L1102.59 1161.46L1020.95 1161.93" stroke="#79FFF7" stroke-width="3" stroke-miterlimit="10"/>
<path d="M1020.95 1161.93L1102.59 1161.46L1004.8 1240.74" stroke="#79FFF7" stroke-width="3" stroke-miterlimit="10"/>
<path d="M697.335 1092.03L776.166 1092.12L806.256 1092.15L886.765 1092.24" fill="#79FFF7"/>
<path d="M697.335 1092.03L776.166 1092.12L806.256 1092.15L886.765 1092.24" stroke="#79FFF7" stroke-width="3" stroke-miterlimit="10"/>
<path d="M806.257 1092.15L886.766 1092.24" stroke="#79FFF7" stroke-width="3" stroke-miterlimit="10"/>
<path d="M1004.8 1240.74L1036.74 1280.14L1102.77 1226.61L1184.97 1224.51L1095.45 1297.1L973.845 1298.85L806.257 1092.15L886.765 1092.24L916.488 1128.9L963.594 1090.71L1042.62 1089.94L946.028 1168.25L972.65 1201.09L1020.95 1161.93L1102.59 1161.46" fill="#79FFF7"/>
<path d="M1004.8 1240.74L1036.74 1280.14L1102.77 1226.61L1184.97 1224.51L1095.45 1297.1L973.845 1298.85L806.257 1092.15L886.765 1092.24L916.488 1128.9L963.594 1090.71L1042.62 1089.94L946.028 1168.25L972.65 1201.09L1020.95 1161.93L1102.59 1161.46" stroke="#79FFF7" stroke-width="3" stroke-miterlimit="10"/>
<path d="M697.335 1092.03L776.166 1092.12" stroke="#79FFF7" stroke-width="3" stroke-miterlimit="10"/>
<path d="M164.167 434.416L697.334 1092.03" stroke="#79FFF7" stroke-width="3" stroke-miterlimit="10"/>
<path d="M353.6 434.63L244.192 434.508L164.167 434.416" fill="#79FFF7"/>
<path d="M353.6 434.63L244.192 434.508L164.167 434.416" stroke="#79FFF7" stroke-width="3" stroke-miterlimit="10"/>
<path d="M776.166 1092.12L243.934 435.659" stroke="#79FFF7" stroke-width="3" stroke-miterlimit="10"/>
<path d="M243.934 435.659L776.166 1092.12L697.335 1092.03L164.167 434.416L244.192 434.508" fill="#79FFF7"/>
<path d="M243.934 435.659L776.166 1092.12L697.335 1092.03L164.167 434.416L244.192 434.508" stroke="#79FFF7" stroke-width="3" stroke-miterlimit="10"/>
<path d="M1539.14 1077.88L1207.03 1076.78C1207.03 1076.78 1147.44 1350.52 1142.95 1371.25C1138.46 1391.98 1118.64 1407.42 1103.41 1419.76C1088.19 1432.11 1041.45 1452.28 1027.21 1434.71L891.288 1267.06C875.496 1247.59 876.71 1198.51 903.354 1176.9" stroke="#79FFF7" stroke-width="3" stroke-miterlimit="10"/>
<path d="M958.19 1112.18C958.19 1112.18 798.801 1115.19 777.707 1115.3C756.604 1115.4 718.77 1151.54 705.448 1162.34C692.126 1173.14 676.734 1212.52 679.933 1233.98C683.132 1255.44 687.046 1269.98 694.169 1278.77L1018.96 1679.37L1143.63 1578.29L1027.21 1434.7" stroke="#79FFF7" stroke-width="3" stroke-miterlimit="10"/>
<path d="M1410.58 1077.45C1410.58 1077.45 1356.88 1332.61 1351.39 1357.94C1345.91 1383.27 1331.33 1403.33 1303.32 1422.23C1275.32 1441.14 1246.54 1444.97 1225.19 1445.08C1203.83 1445.19 1036.19 1445.78 1036.19 1445.78" stroke="#79FFF7" stroke-width="3" stroke-miterlimit="10"/>
<path d="M1388.35 1314.05L1257.42 1313.88C1257.42 1313.88 1239.07 1398.38 1236.08 1412.2C1233.08 1426.02 1222.79 1459.05 1193.73 1459.19C1164.67 1459.33 1258.31 1458.1 1277.94 1458C1297.58 1457.91 1309.98 1441.37 1314.76 1419.29C1319.54 1397.22 1337.37 1313.99 1337.37 1313.99" stroke="#79FFF7" stroke-width="3" stroke-miterlimit="10"/>
<path d="M1193.74 1459.18C1164.67 1459.33 1258.31 1458.1 1277.95 1458C1297.58 1457.9 1309.99 1441.37 1314.77 1419.29C1319.55 1397.21 1337.37 1313.98 1337.37 1313.98" stroke="#79FFF7" stroke-width="3" stroke-miterlimit="10"/>
<path d="M1257.43 1313.88C1257.43 1313.88 1239.07 1398.37 1236.08 1412.2C1233.09 1426.02 1222.8 1459.04 1193.74 1459.18" stroke="#79FFF7" stroke-width="3" stroke-miterlimit="10"/>
<path d="M1388.35 1314.05L1337.37 1313.98L1257.43 1313.88" stroke="#79FFF7" stroke-width="3" stroke-miterlimit="10"/>
<path d="M1337.37 1313.98L1257.42 1313.88" stroke="#79FFF7" stroke-width="3" stroke-miterlimit="10"/>
<path d="M1193.74 1459.18C1164.67 1459.33 1258.31 1458.1 1277.95 1458C1297.58 1457.9 1309.99 1441.37 1314.77 1419.29C1319.55 1397.21 1337.37 1313.98 1337.37 1313.98L1257.42 1313.88C1257.42 1313.88 1239.07 1398.37 1236.08 1412.2C1233.09 1426.02 1222.8 1459.04 1193.74 1459.18Z" fill="#79FFF7" stroke="#79FFF7" stroke-width="3" stroke-miterlimit="10"/>
<path d="M1166.1 1325.89C1166.1 1325.89 1091.09 1329.9 1077.15 1329.97C1051.82 1330.1 1028.03 1365.68 1043.51 1384.77L1316.59 1721.6C1326.5 1733.82 1413.27 1728.02 1425.84 1727.96C1438.41 1727.89 1462.49 1710.9 1465.81 1695.55C1469.14 1680.2 1489.46 1622.58 1491.62 1612.6C1493.78 1602.62 1488.4 1598.76 1480.97 1589.59L1416.57 1510.16C1407.28 1498.7 1389.6 1500.38 1370.74 1500.48C1351.89 1500.57 1327.71 1499.93 1327.71 1499.93L1409.45 1600.74C1413.78 1606.09 1411.05 1611.47 1408.22 1624.52C1405.39 1637.57 1389.18 1679.83 1387.19 1689.04C1385.19 1698.25 1382.05 1704.6 1378.34 1700.01L1123.36 1385.53C1113.61 1373.5 1127.38 1337.96 1166.09 1325.88L1166.1 1325.89Z" fill="#79FFF7" stroke="#79FFF7" stroke-width="3" stroke-miterlimit="10"/>
<path d="M1416.57 1510.17C1407.28 1498.71 1389.6 1500.39 1370.75 1500.48C1351.9 1500.58 1247.61 1499.37 1247.61 1499.37" stroke="#79FFF7" stroke-width="3" stroke-miterlimit="10"/>
<path d="M1271.27 702.755C1271.27 702.755 706.418 699.448 675.489 699.602C644.56 699.755 618.085 702.474 589.535 725.621L509.598 790.431" stroke="#79FFF7" stroke-width="3" stroke-miterlimit="10"/>
<path d="M890.997 700.608C857.405 700.775 819.728 706.081 791.892 728.65L598.468 885.471" stroke="#79FFF7" stroke-width="3" stroke-miterlimit="10"/>
<path d="M1358.01 854.479C1358.01 854.479 894.102 851.8 864.65 851.946C835.198 852.092 812.174 866.014 786.484 886.843L666.576 984.06" stroke="#79FFF7" stroke-width="3" stroke-miterlimit="10"/>
<path d="M1111.47 853.092C1077.39 853.261 1029.89 854.402 998.482 879.863L815.766 1028C795.783 1044.2 756.288 1048.02 722.3 1052.79" stroke="#79FFF7" stroke-width="3" stroke-miterlimit="10"/>
<path d="M685.601 1048.37C685.601 1048.37 571.066 1050.09 552.217 1050.19C533.364 1050.28 513.554 1056 476.61 1010.43L88.5556 531.803" stroke="#79FFF7" stroke-width="3" stroke-miterlimit="10"/>
<path d="M59.3238 532.713L243.119 531.796" stroke="#79FFF7" stroke-width="3" stroke-miterlimit="10"/>
<rect x="295.367" y="931.824" width="971" height="923" transform="rotate(-39.0339 295.367 931.824)" fill="url(#paint0_linear_2474_855)"/>
</g>
<defs>
<linearGradient id="paint0_linear_2474_855" x1="780.867" y1="931.824" x2="780.867" y2="1854.82" gradientUnits="userSpaceOnUse">
<stop stop-color="#1F1F1F" stop-opacity="0"/>
<stop offset="1" stop-color="#1F1F1F"/>
</linearGradient>
</defs>
</svg>
